<svg xmlns="http://www.w3.org/2000/svg" viewBox="0 0 24 24" fill="currentColor" aria-hidden="true">
      <path d="M12 .5C5.65.5.5 5.65.5 12c0 5.08 3.29 9.39 7.86 10.91.58.11.79-.25.79-.56 0-.28-.01-1.02-.02-2-3.2.7-3.88-1.54-3.88-1.54-.53-1.36-1.3-1.72-1.3-1.72-1.06-.73.08-.72.08-.72 1.17.08 1.79 1.2 1.79 1.2 1.04 1.78 2.73 1.27 3.4.97.11-.75.41-1.27.75-1.56-2.56-.29-5.26-1.28-5.26-5.7 0-1.26.45-2.29 1.19-3.1-.12-.29-.52-1.46.11-3.04 0 0 .98-.31 3.2 1.18a11.04 11.04 0 0 1 2.92-.39c.99.01 1.99.13 2.92.39 2.22-1.49 3.2-1.18 3.2-1.18.63 1.58.23 2.75.11 3.04.74.81 1.19 1.84 1.19 3.1 0 4.43-2.71 5.41-5.29 5.7.42.36.79 1.08.79 2.18 0 1.58-.01 2.86-.01 3.25 0 .31.21.68.8.56A10.52 10.52 0 0 0 23.5 12C23.5 5.65 18.35.5 12 .5z" />
    </svg>